<?xml version="1.0" standalone="no"?>
<!DOCTYPE svg PUBLIC "-//W3C//DTD SVG 20010904//EN"
 "http://www.w3.org/TR/2001/REC-SVG-20010904/DTD/svg10.dtd">
<svg version="1.0" xmlns="http://www.w3.org/2000/svg"
 width="236.000000pt" height="236.000000pt" viewBox="0 0 236.000000 236.000000"
 preserveAspectRatio="xMidYMid meet">
<metadata>
Created by potrace 1.14, written by Peter Selinger 2001-2017
</metadata>
<g transform="translate(0.000000,236.000000) scale(0.100000,-0.100000)"
fill="#000000" stroke="none">
<path d="M2175 2062 c-6 -5 -30 -14 -55 -22 -25 -7 -69 -21 -98 -31 -68 -24
-72 -24 -72 6 0 14 -4 25 -10 25 -5 0 -10 -11 -10 -24 0 -21 -17 -33 -122 -88
-100 -51 -135 -75 -185 -128 -72 -74 -106 -133 -122 -208 -6 -30 -17 -62 -24
-73 -8 -10 -12 -33 -9 -51 4 -29 6 -30 18 -13 8 10 14 14 14 9 0 -6 -7 -19
-15 -30 -8 -10 -15 -28 -15 -39 0 -11 -7 -29 -15 -39 -35 -47 -14 -47 69 -2
46 25 113 55 148 66 34 10 85 34 113 52 27 18 66 43 86 54 68 39 120 88 181
174 70 98 96 146 134 250 14 41 31 81 38 89 8 12 8 13 -2 7 -7 -4 -15 -1 -18
8 -7 18 -15 20 -29 8z"/>
<path d="M184 1948 c9 -13 13 -27 10 -30 -3 -4 6 -38 20 -76 13 -38 23 -72 20
-75 -15 -14 48 -129 102 -186 33 -35 74 -84 92 -109 17 -25 32 -43 32 -40 0 4
32 -11 71 -33 40 -21 76 -39 81 -39 6 0 26 -7 46 -16 131 -58 177 -75 185 -67
3 2 30 -3 61 -13 31 -10 58 -15 62 -12 6 6 -64 149 -78 158 -4 3 -14 25 -22
47 -8 23 -31 68 -52 100 -20 32 -40 67 -43 79 -15 53 -170 159 -314 215 -28
11 -63 28 -77 37 -21 14 -131 59 -194 79 -17 6 -18 5 -2 -19z"/>
<path d="M2325 1450 c-4 -12 -16 -25 -28 -30 -16 -6 -17 -9 -6 -9 14 -1 16 -9
12 -45 -3 -24 -1 -52 5 -62 8 -15 10 -12 10 17 1 18 6 58 11 88 11 55 8 80 -4
41z"/>
<path d="M110 1383 c0 -13 57 -63 72 -63 6 0 9 1 7 3 -2 1 -21 18 -42 36 -20
19 -37 30 -37 24z"/>
<path d="M2221 1379 c-1 -19 -45 -44 -61 -34 -6 4 -25 -9 -45 -29 -34 -36 -59
-50 -34 -19 12 15 12 16 -4 10 -11 -4 -31 -10 -45 -14 -15 -3 -33 -12 -40 -20
-7 -7 -19 -13 -26 -13 -7 0 -21 -9 -31 -20 -13 -15 -22 -17 -36 -10 -25 14
-59 12 -59 -2 0 -7 -11 -26 -24 -43 -18 -23 -22 -35 -15 -52 5 -14 5 -23 -1
-23 -6 0 -10 5 -10 11 0 6 -7 3 -16 -5 -8 -9 -20 -16 -26 -16 -5 0 -18 -10
-28 -22 -17 -22 -19 -22 -26 -5 -4 10 -10 15 -13 10 -14 -19 -91 -73 -91 -64
0 6 -9 15 -19 21 -17 9 -18 7 -12 -13 4 -12 20 -48 35 -81 24 -49 28 -67 23
-112 -5 -51 -45 -150 -56 -139 -2 3 -6 24 -7 48 -1 23 -16 76 -33 117 -17 41
-31 81 -31 88 0 8 13 27 29 43 28 28 28 43 -1 36 -7 -2 -10 -2 -5 0 17 10 -4
19 -33 15 -21 -3 -35 -13 -42 -28 -11 -24 -28 -33 -28 -14 0 5 -9 2 -20 -7
-14 -13 -17 -19 -8 -23 16 -6 22 -30 8 -30 -5 0 -15 9 -22 20 -17 26 -58 26
-91 0 l-26 -21 -13 21 c-7 11 -21 20 -31 20 -10 0 -15 5 -12 10 4 6 11 7 17 4
7 -5 8 -2 4 5 -5 7 -14 10 -21 7 -8 -3 -16 0 -19 7 -3 8 -5 7 -5 -2 -1 -8 -11
-25 -23 -38 -21 -22 -22 -22 -41 -5 -16 14 -21 14 -25 3 -3 -10 -9 -8 -23 10
-14 18 -21 21 -27 12 -15 -23 -53 14 -47 45 3 15 3 22 -1 15 -3 -8 -16 -10
-35 -6 -16 3 -35 0 -43 -6 -11 -9 -19 -7 -40 14 -31 31 -61 32 -77 3 -11 -21
-12 -21 -24 8 -16 38 -66 84 -72 66 -3 -6 -9 -9 -15 -6 -6 4 -13 1 -17 -5 -6
-9 -14 -8 -34 2 -20 10 -23 17 -15 25 9 9 8 12 -5 12 -9 0 -17 -4 -17 -10 0
-20 -26 -9 -45 20 -11 17 -27 32 -36 35 -16 6 -65 -15 -64 -27 0 -3 -3 -9 -6
-13 -4 -3 -9 8 -12 24 -5 24 -14 32 -44 40 -21 6 -50 11 -64 11 -25 0 -26 -2
-19 -45 5 -32 3 -45 -7 -49 -7 -3 -13 -13 -13 -23 1 -17 1 -17 11 0 26 45 39
1 15 -49 -8 -16 -17 -42 -21 -59 -4 -22 0 -17 16 18 12 26 25 47 30 47 5 0 9
-42 9 -94 0 -103 9 -122 54 -110 24 6 26 4 26 -24 0 -37 17 -84 33 -94 32 -21
52 -7 86 57 18 36 37 65 41 65 9 0 20 -51 20 -94 0 -35 -34 -116 -48 -116 -5
0 -17 17 -26 38 -14 33 -15 34 -10 7 8 -42 23 -57 51 -50 19 4 23 1 23 -18 0
-36 59 -107 83 -99 4 1 12 -10 18 -25 10 -28 55 -72 74 -73 6 0 19 -17 30 -38
20 -36 22 -37 73 -36 49 2 53 0 58 -25 14 -64 30 -96 52 -99 13 -2 25 3 28 12
7 20 24 21 24 3 0 -25 36 -48 64 -41 14 3 26 10 26 15 0 16 18 9 23 -9 4 -14
6 -14 12 5 4 13 11 20 16 17 5 -3 7 -10 3 -15 -3 -6 4 -7 19 -4 19 5 28 1 41
-21 10 -14 21 -22 25 -17 3 6 16 16 29 22 16 9 21 18 17 29 -18 45 5 295 29
319 9 9 36 -151 36 -214 0 -47 -23 -108 -52 -140 l-20 -22 21 6 c12 3 32 23
45 45 20 34 25 38 33 23 6 -10 30 -21 54 -25 36 -7 51 -5 83 13 39 22 65 56
34 44 -9 -3 -21 0 -27 6 -20 20 -12 26 17 12 15 -8 36 -12 47 -8 17 5 18 4 6
-11 -11 -13 -11 -16 0 -16 8 0 24 -3 37 -6 21 -6 22 -5 12 20 -5 15 -10 28
-10 29 0 1 21 3 47 4 49 2 73 20 73 55 0 25 37 41 81 35 44 -6 54 0 33 20 -19
19 -7 38 14 21 16 -14 17 -14 -4 36 -3 9 3 19 15 26 12 6 21 18 21 26 0 8 4
13 9 10 5 -4 6 9 1 29 -4 19 -4 35 0 35 5 0 15 3 24 6 22 9 21 -22 -1 -35 -16
-9 -16 -10 5 -11 16 0 22 6 22 23 0 24 35 87 48 87 5 0 25 12 44 28 34 26 34
28 16 46 -23 25 -23 39 0 32 12 -4 24 4 40 27 12 18 22 39 22 47 0 7 8 19 18
27 9 8 11 12 5 8 -8 -4 -21 8 -34 29 -12 20 -25 36 -30 36 -5 0 -9 5 -9 11 0
5 4 8 9 5 8 -5 -2 66 -16 109 -5 18 -4 18 11 6 23 -19 86 -115 86 -130 0 -7 5
-9 11 -5 8 4 8 9 0 17 -17 17 -13 26 9 20 14 -4 23 2 31 20 10 21 5 36 -35
117 -25 51 -46 86 -46 77 0 -8 -3 -24 -6 -34 -4 -13 -3 -14 3 -5 12 16 63 -92
63 -132 0 -32 -22 -34 -50 -6 -18 18 -24 43 -24 102 0 9 -3 15 -7 12 -4 -2
-15 16 -24 41 -19 49 -14 105 11 126 19 16 33 2 44 -43 8 -32 8 -32 9 13 1 48
25 74 43 47 11 -18 10 -72 -3 -104 -8 -24 -7 -30 10 -44 11 -8 25 -33 30 -55
l10 -40 -2 41 c0 27 5 48 16 59 22 21 22 32 0 14 -15 -13 -16 -10 -11 31 3 25
1 54 -3 65 -7 19 -8 19 -8 -2 -1 -39 -18 -25 -24 19 -3 26 -1 48 6 58 10 13
10 13 -5 2 -13 -10 -17 -10 -21 0 -4 9 -6 8 -6 -3z m-139 -127 c3 -9 1 -46 -3
-82 -4 -35 -5 -69 -2 -74 3 -5 0 -7 -7 -4 -8 2 -19 26 -26 54 -6 27 -15 57
-18 66 -5 11 0 24 13 37 26 26 37 26 43 3z m184 -33 c1 -36 0 -39 -14 -26 -9
10 -12 24 -8 41 10 39 21 31 22 -15z m-1913 3 c-8 -5 -9 -13 -3 -22 6 -8 10
-33 10 -55 l0 -40 -20 25 c-10 14 -21 32 -23 40 -7 25 11 60 30 60 12 0 14 -3
6 -8z m1653 -18 c8 -30 -2 -129 -16 -153 -7 -13 -11 -11 -20 14 -22 58 -32
135 -19 151 19 23 48 17 55 -12z m-96 -13 c11 -21 14 -199 4 -225 -4 -11 -19
8 -45 61 -21 43 -39 85 -39 94 0 31 22 78 38 82 29 8 31 7 42 -12z m-1387 -63
c12 -35 39 -257 33 -265 -1 -1 -26 44 -55 102 -57 111 -62 146 -24 187 23 26
30 23 46 -24z m-80 -40 c3 -35 8 -73 12 -85 14 -45 -13 -22 -45 38 -37 70 -36
109 4 109 22 0 24 -5 29 -62z m186 -33 c24 -46 25 -54 4 -202 -5 -44 -23 -50
-23 -9 0 12 -11 55 -25 94 -27 78 -32 131 -13 150 20 20 32 14 57 -33z m1183
18 c18 -10 25 -76 17 -147 -4 -42 -11 -81 -15 -87 -12 -20 -73 178 -67 217 5
31 8 33 32 27 14 -3 29 -8 33 -10z m-1086 -11 c34 -23 43 -98 23 -193 -9 -43
-13 -49 -24 -38 -38 39 -68 175 -49 223 6 17 31 21 50 8z m-320 -83 c7 -39 11
-76 8 -80 -3 -5 -17 -9 -31 -9 l-25 0 7 78 c11 119 20 121 41 11z m451 44 c11
-47 -1 -218 -18 -228 -13 -9 -47 78 -54 138 -9 72 7 117 41 117 17 0 25 -7 31
-27z m847 -2 c16 -17 16 -28 5 -122 -7 -57 -16 -108 -19 -112 -4 -5 -13 13
-19 40 -6 26 -24 77 -38 112 l-27 64 23 18 c30 24 53 24 75 0z m-224 -6 c-7
-9 -15 -13 -17 -11 -7 7 7 26 19 26 6 0 6 -6 -2 -15z m624 -65 c54 -60 47
-139 -11 -124 -15 4 -22 16 -26 47 -3 23 -9 59 -13 80 -9 48 4 48 50 -3z m-78
-75 c19 -38 34 -82 34 -98 0 -25 -3 -28 -27 -25 -25 3 -30 10 -57 100 -30 101
-30 153 1 113 8 -11 30 -51 49 -90z m-1527 17 c16 -49 18 -68 10 -92 -21 -58
-69 -32 -69 38 0 55 20 136 31 125 5 -5 17 -36 28 -71z m477 53 c10 -15 14
-36 11 -52 -3 -16 -11 -59 -17 -98 -15 -87 -19 -99 -27 -92 -7 7 -42 163 -50
225 l-6 42 36 0 c28 0 40 -6 53 -25z m234 5 c31 -17 41 -70 39 -214 -1 -75 -3
-136 -5 -136 -1 0 -8 17 -15 38 -6 20 -28 73 -49 117 -49 105 -53 127 -36 170
15 36 33 43 66 25z m151 -7 c16 -18 18 -125 5 -208 l-8 -50 -29 64 c-46 101
-53 133 -39 175 9 27 17 36 35 36 12 0 29 -7 36 -17z m102 -13 c16 -26 16 -37
6 -97 -6 -37 -15 -72 -19 -76 -12 -14 -40 82 -40 138 0 28 3 55 7 58 13 14 29
6 46 -23z m-353 5 c0 -8 -2 -15 -4 -15 -2 0 -6 7 -10 15 -3 8 -1 15 4 15 6 0
10 -7 10 -15z m-23 -32 c9 -21 19 -74 24 -118 4 -44 11 -96 14 -115 l6 -35
-40 44 c-60 67 -95 142 -88 192 10 77 57 95 84 32z m818 -25 c4 4 5 0 3 -8 -3
-8 2 -24 12 -35 9 -11 30 -44 45 -73 24 -44 26 -56 17 -77 -9 -18 -19 -25 -41
-25 -33 0 -52 33 -56 98 -1 20 -6 59 -10 87 -7 44 -6 48 7 38 8 -7 18 -9 23
-5z m-1200 -157 c-11 -95 -23 -131 -45 -131 -50 0 -53 113 -5 194 l28 48 15
-27 c10 -20 12 -43 7 -84z m1117 35 c10 -7 33 -39 53 -71 49 -82 46 -155 -5
-155 -22 0 -68 112 -76 185 -7 57 -2 64 28 41z m-1016 -28 c-4 -13 -10 -57
-15 -98 -12 -114 -52 -174 -81 -121 -23 44 4 152 51 206 36 40 54 45 45 13z
m1224 -5 c0 -5 -5 -15 -10 -23 -8 -12 -10 -11 -10 8 0 12 5 22 10 22 6 0 10
-3 10 -7z m-272 -91 c77 -103 87 -135 52 -167 -27 -24 -39 -12 -72 75 -29 73
-48 189 -26 156 7 -10 28 -39 46 -64z m-843 -100 c0 -59 -4 -113 -8 -119 -13
-21 -54 -15 -71 9 -21 29 -20 91 0 131 22 43 57 86 69 86 6 1 10 -41 10 -107z
m735 74 c0 -7 23 -44 50 -81 39 -52 50 -76 50 -104 0 -62 -45 -83 -76 -35 -29
44 -59 254 -34 239 6 -3 10 -12 10 -19z m-581 -14 c-5 -15 -17 -77 -27 -136
-12 -80 -22 -112 -34 -120 -38 -24 -76 35 -64 99 5 27 116 185 131 185 2 0 0
-13 -6 -28z m561 -164 c7 -38 9 -75 6 -84 -8 -21 -47 -34 -70 -22 -17 9 -18
20 -14 122 7 147 14 163 44 100 12 -26 28 -78 34 -116z m-141 44 c35 -107 36
-159 6 -192 -22 -25 -35 -25 -74 -2 -28 16 -30 20 -25 57 4 22 12 63 20 90 7
28 16 71 20 98 3 26 10 47 14 47 4 0 22 -44 39 -98z m-324 -118 c6 -41 4 -54
-10 -67 -22 -23 -41 -21 -66 4 -31 31 -22 113 22 204 l34 70 6 -80 c3 -44 9
-103 14 -131z m79 142 c23 -49 38 -127 34 -182 -3 -43 -6 -50 -30 -58 -55 -19
-82 36 -59 124 5 19 12 61 16 93 3 31 10 57 15 57 4 0 15 -15 24 -34z m406
-196 c0 -5 -4 -10 -10 -10 -5 0 -10 5 -10 10 0 6 5 10 10 10 6 0 10 -4 10 -10z
m-545 -50 c3 -5 1 -10 -4 -10 -6 0 -11 5 -11 10 0 6 2 10 4 10 3 0 8 -4 11
-10z"/>
<path d="M2267 1349 c4 -15 8 -17 14 -8 8 14 3 29 -11 29 -4 0 -6 -9 -3 -21z"/>
<path d="M1778 1231 c-31 -28 -31 -30 -10 -31 13 0 22 6 22 15 0 7 8 18 17 24
10 5 15 12 11 16 -3 4 -21 -7 -40 -24z"/>
<path d="M230 1181 c0 -5 5 -13 10 -16 6 -3 10 -2 10 4 0 5 -4 13 -10 16 -5 3
-10 2 -10 -4z"/>
<path d="M1770 1174 c0 -8 5 -12 10 -9 6 3 10 10 10 16 0 5 -4 9 -10 9 -5 0
-10 -7 -10 -16z"/>
<path d="M1620 1070 c0 -5 5 -10 10 -10 6 0 10 5 10 10 0 6 -4 10 -10 10 -5 0
-10 -4 -10 -10z"/>
<path d="M1945 511 c-3 -5 -1 -12 4 -15 5 -3 11 1 15 9 6 16 -9 21 -19 6z"/>
<path d="M1105 200 c3 -5 8 -10 11 -10 2 0 4 5 4 10 0 6 -5 10 -11 10 -5 0 -7
-4 -4 -10z"/>
</g>
</svg>
